<?xml version="1.0" encoding="utf-8"?>
<!-- Generator: Adobe Illustrator 23.0.5, SVG Export Plug-In . SVG Version: 6.00 Build 0)  -->
<svg version="1.1" id="Component_45_1" xmlns="http://www.w3.org/2000/svg" xmlns:xlink="http://www.w3.org/1999/xlink" x="0px"
	 y="0px" viewBox="0 0 124.3 24" style="enable-background:new 0 0 124.3 24;" xml:space="preserve">
<style type="text/css">
	.st0{fill:#FFFFFF;}
	.st1{fill:#FFC453;}
</style>
<g id="logo">
	<g id="Group_2" transform="translate(105.363)">
		<g id="Group_1">
			<path id="Path_2" class="st0" d="M18.7,9.9c0,0,0-0.1,0.1-0.1l0-0.1c0-0.1,0-0.1,0-0.2c0,0,0,0,0,0l0-0.1l0,0v0
				c0-0.1,0-0.3,0-0.4c0-0.1,0-0.3,0-0.4c0,0,0-0.1,0-0.1c0,0,0,0,0,0c0-0.1,0-0.1-0.1-0.2l0,0c0-0.1,0-0.1-0.1-0.2c0,0,0-0.1,0-0.1
				l0-0.1c0-0.1-0.1-0.1-0.1-0.2l0-0.1c0-0.1-0.1-0.1-0.1-0.2l-0.1-0.1l-3.3-3.3L10.8,0L7.7,3.1L13.6,9L7.7,15l3.1,3.1l4.2-4.2
				l3.3-3.3l0.1-0.1c0.1-0.1,0.2-0.2,0.3-0.4C18.6,10.1,18.7,10,18.7,9.9C18.7,10,18.7,9.9,18.7,9.9L18.7,9.9z"/>
			<path id="Path_3" class="st1" d="M5.3,15L11.2,9L8.1,5.9L4,10.1l-3.3,3.3c0,0-0.1,0.1-0.1,0.1s-0.1,0.1-0.1,0.1
				c0,0.1-0.1,0.1-0.1,0.2c-0.1,0.2-0.2,0.3-0.2,0.5c0,0,0,0,0,0C0,14.5,0,14.7,0,14.8v0.3c0,0.4,0.1,0.7,0.3,1l0.1,0.1
				c0.1,0.1,0.1,0.1,0.2,0.2c0,0,0.1,0.1,0.1,0.1L8.1,24l3.1-3.1L7,16.7L5.3,15z"/>
		</g>
	</g>
	<g id="Group_3">
		<path id="Path_4" class="st0" d="M14.7,0h-2.5l0,18.4h1.4l1.1-1.1L14.7,0z"/>
		<path id="Path_5" class="st0" d="M75.7,24H79v-3.3l-3.3,0L75.7,24z"/>
		<path id="Path_6" class="st0" d="M80.6,24h3.3v-3.3l-3.3,0L80.6,24z"/>
		<path id="Path_7" class="st0" d="M22.8,4.9h-2.5V13c0,2.3,0,4.3-1.6,5.7c-0.7,0.6-1.7,0.9-2.6,0.9h-1.9v2.5h2.1
			c1.5,0,3-0.5,4.1-1.5c2.5-2.1,2.5-5,2.4-7.6L22.8,4.9z"/>
		<path id="Path_8" class="st0" d="M8.7,4.9H6.1V13c0,2.3,0,4.3-1.6,5.7c-0.7,0.6-1.7,0.9-2.6,0.9H0v2.5h2.1c1.5,0,3-0.5,4.1-1.5
			c2.5-2.1,2.5-5,2.4-7.6L8.7,4.9z"/>
		<path id="Path_9" class="st0" d="M19.9,3.6l3.3,0V0.3h-3.3L19.9,3.6z"/>
		<path id="Path_10" class="st0" d="M100.8,13.9l-1.1-7l-2.5,0.4l1.1,7c0.1,0.4-0.1,0.8-0.3,1.1c-0.3,0.3-0.7,0.5-1.1,0.5h-6.8
			c-1.3,0-2.4-1.1-2.4-2.4V8.6h-2.5v4.9c0,1.3-1.1,2.4-2.4,2.4h-4.4c-1.3,0-2.4-1.1-2.4-2.4v-0.4h0c-0.2-1.8-1.4-3.3-3.1-4l-7.1-2.8
			l-1.5,1v0.2c0,1.3,0,4.4,0,5v0.1c0,0.8-0.1,1.7-0.5,2.4c-0.4,0.5-1,0.8-1.6,0.7l-1.7,0v0h-1.4c-1.3,0-2.4-1.1-2.4-2.4V4.7h-2.5V6
			h-3.7c-3.4,0-6.2,2.8-6.2,6.2c0,3.4,2.8,6.2,6.2,6.2c1.8,0,3.4-0.8,4.6-2.1c0.9,1.3,2.4,2.1,4,2.1h2.2l0.9,0h0
			c1.1,0,2.2-0.4,3-1.1l4.6,1.2c0.4,0.1,0.8,0.1,1.2,0.1c1.5,0,2.9-0.7,3.8-1.8c0.9,1,2.2,1.5,3.5,1.5h4.4c1.4,0,2.7-0.6,3.6-1.6
			c0.9,1,2.3,1.6,3.6,1.6h6.8c1.2,0,2.2-0.5,3-1.4C100.7,16.2,101,15,100.8,13.9L100.8,13.9z M54.3,12.2c0,2-1.7,3.7-3.7,3.7
			c0,0,0,0,0,0c-2,0-3.7-1.7-3.7-3.7l0,0c0-2,1.7-3.7,3.7-3.7c0,0,0,0,0,0h3.7V12.2z M66.8,12.7l0-3.3l5.2,2
			c1.2,0.5,1.9,1.9,1.4,3.1c-0.4,1.1-1.6,1.8-2.8,1.5l-4-1C66.7,14.3,66.8,13.5,66.8,12.7L66.8,12.7z"/>
		<path id="Path_11" class="st0" d="M91.6,24l3.3,0v-3.3h-3.3L91.6,24z"/>
		<path id="Path_12" class="st0" d="M40.3,6.9l-2.5,0.4l1.1,7c0.1,0.4-0.1,0.8-0.3,1.1c-0.3,0.3-0.7,0.5-1.1,0.5h-4.9l-4,0V0.3h-2.5
			v17l1.1,1.1l4.6,0h5.7c1.2,0,2.2-0.5,3-1.4c0.8-0.9,1.1-2,0.9-3.2L40.3,6.9z"/>
		<path id="Path_13" class="st0" d="M31.8,24l3.3,0v-3.3h-3.3L31.8,24z"/>
	</g>
</g>
</svg>
